<svg id="Layer_1" data-name="Layer 1" xmlns="http://www.w3.org/2000/svg" viewBox="0 0 800 270"><defs><style>.cls-1{fill:#31302c;}</style></defs><title>hsv-beer-logo</title><path class="cls-1" d="M11.59,129.84,29,216.46s0,0,0,0c3.18,22.24,30.19,54.26,71.1,54.26a74.36,74.36,0,0,0,65.38-38l23.08,14.94a4.83,4.83,0,0,0,2.67.81,5.09,5.09,0,0,0,3.48-1.51,5.81,5.81,0,0,0,1.23-2l26.65-79.23A27.87,27.87,0,0,1,209,164.56l-20.39,70.56-19-11.57a41.52,41.52,0,0,0,1.73-7.09c0-.05,0-.1,0-.15l13.13-63.57L172,146.15l-10.44,68.58v.08a.08.08,0,0,0,0,.07c-2.72,18.81-26.15,46-61.38,46-36.71,0-59.13-29.48-61.35-46a.73.73,0,0,0-.05-.2v-.07L27.56,140.43C20.13,136.67,11.59,129.84,11.59,129.84Z"/><path class="cls-1" d="M51,153.42,54,213.24a2.47,2.47,0,0,1-4.92.41l-6.84-59.51a4.36,4.36,0,0,1,8.67-1A2.64,2.64,0,0,1,51,153.42Z"/><path class="cls-1" d="M157.69,154.13l-6.77,59.52a2.47,2.47,0,0,1-4.92-.41l3.14-59.82a4.29,4.29,0,0,1,8.57.45A2.11,2.11,0,0,1,157.69,154.13Z"/><path class="cls-1" d="M104.37,165.08l-1.82,75.85a2.47,2.47,0,0,1-4.94,0l-1.82-75.85a4.29,4.29,0,1,1,8.58-.2Z"/><path class="cls-1" d="M225.24,118.47l-30.46-16.12-4.57-2.42a52.82,52.82,0,0,0,10.27-28.59c.05-.79.08-1.58.08-2.37C200.56,30.31,156.44,0,100.07,0,44.84,0,1.34,29.12-.36,66.7c0,.74,0,1.51,0,2.27,0,.59,0,1.21,0,1.8v.1A50.88,50.88,0,0,0,2.8,86.62c3.83,10.35,11,19.68,20.69,27.43,18.29,14.72,45.6,23.88,76.58,23.88,25.75,0,49-6.35,66.59-16.94l8.44,4.47,13.46,7.13,22.81,12.08a15.14,15.14,0,0,0,3,1.18,14.06,14.06,0,0,0,3.9.54,14.74,14.74,0,0,0,13.11-7.9c.1-.22.22-.42.32-.64A14.81,14.81,0,0,0,225.24,118.47ZM100.07,105.83c-33.5,0-70.85-16.57-70.85-40.34s37.35-40.32,70.85-40.32,70.86,16.57,70.86,40.32S133.6,105.83,100.07,105.83Z"/><path class="cls-1" d="M298,62H322.2v51.2q11.55-11.57,25.41-11.56,8.72,0,12.89,6.4t4.18,16.18V206h-24v-77q0-5-1.51-7.29t-5.42-2.31q-4.8,0-11.55,5.16V206H298Z"/><path class="cls-1" d="M389.21,200.68q-8.35-6.93-11.91-20.26l17.95-6.93q4.1,17.23,14.94,17.24a8.78,8.78,0,0,0,6.31-2.13,7.76,7.76,0,0,0,2.22-5.87,12.67,12.67,0,0,0-2.49-7.55,53.35,53.35,0,0,0-8.89-8.8l-12.26-10.67a52.08,52.08,0,0,1-11.56-12.44q-3.74-6-3.73-14.75,0-12.09,8.26-19.47t20.89-7.38q12.09,0,19.73,7.2t10,19.47l-15.82,6.75a29.49,29.49,0,0,0-4.71-11.64,10,10,0,0,0-8.45-4.53,7.86,7.86,0,0,0-5.95,2.31,8.07,8.07,0,0,0-2.22,5.86,10,10,0,0,0,2.48,6,54.74,54.74,0,0,0,7.47,7.46L423.87,152a73.21,73.21,0,0,1,12.36,13.24,26.14,26.14,0,0,1,4.35,15.2q0,13-8.44,20.09t-21.6,7.11Q397.56,207.62,389.21,200.68Z"/><path class="cls-1" d="M446.8,103.27h23.47L480.75,177l10.31-73.77h23.29L493.91,206H467.07Z"/><path class="cls-1" d="M528,187.53h10.48V206H528Z"/><path class="cls-1" d="M567.32,197.49V206H557.9V62h9.42v50a26.16,26.16,0,0,1,8.26-7.37,22.43,22.43,0,0,1,11.47-2.94q13.34,0,18.31,10.58t5,31.73v19.73q0,22.57-5.42,33.24t-18.76,10.67Q575.49,207.62,567.32,197.49Zm27.37-.89q3.38-3.73,4.71-11.47a129.83,129.83,0,0,0,1.34-21.06V144a140.39,140.39,0,0,0-1.16-20.53q-1.16-7.38-4.53-10.93T585.1,109q-9.08,0-17.78,9.6v72.53q7.81,9.24,17.6,9.24Q591.31,200.33,594.69,196.6Z"/><path class="cls-1" d="M638.24,204.24q-5.68-3.37-8.71-12.09t-3-24.17V140.6q0-15.47,3.11-24t8.8-11.74q5.69-3.2,14.4-3.2,9.6,0,15.11,4.09t7.82,12.89q2.31,8.8,2.31,23.91v9.77H635.93v16.36q0,12.27,1.69,19.2t5.24,9.77q3.55,2.85,9.78,2.85,7.29,0,11.73-4.18T668.82,179v-7.65h9.24v6.76q0,14.22-5.78,21.86t-19.64,7.65Q643.93,207.62,638.24,204.24Zm30.58-57.59v-8a103.54,103.54,0,0,0-1.07-16.71,17.45,17.45,0,0,0-4.53-9.69q-3.47-3.47-10.4-3.47-6,0-9.69,2.49t-5.42,9.07q-1.79,6.57-1.78,18.49v7.82Z"/><path class="cls-1" d="M705.61,204.24q-5.68-3.37-8.71-12.09t-3-24.17V140.6q0-15.47,3.11-24t8.8-11.74q5.69-3.2,14.4-3.2,9.6,0,15.11,4.09t7.82,12.89q2.31,8.8,2.31,23.91v9.77H703.3v16.36q0,12.27,1.69,19.2t5.24,9.77q3.56,2.85,9.78,2.85,7.29,0,11.73-4.18T736.19,179v-7.65h9.24v6.76q0,14.22-5.78,21.86T720,207.62Q711.3,207.62,705.61,204.24Zm30.58-57.59v-8a103.54,103.54,0,0,0-1.07-16.71,17.45,17.45,0,0,0-4.53-9.69q-3.47-3.47-10.4-3.47-6,0-9.69,2.49t-5.42,9.07q-1.79,6.57-1.78,18.49v7.82Z"/><path class="cls-1" d="M764.45,103.27h9.42v13.87a30.48,30.48,0,0,1,11.11-11,26.65,26.65,0,0,1,13.24-3.91,7.39,7.39,0,0,1,1.78.18v9.77a10.72,10.72,0,0,0-3.91-.53q-14.22,0-22.22,13.15V206h-9.42Z"/></svg>